<?xml version="1.0" encoding="UTF-8"?>
<svg width="1200pt" height="1200pt" version="1.1" viewBox="0 0 1200 1200" xmlns="http://www.w3.org/2000/svg">
 <g fill="#4c8c2a">
  <path d="m722.65 362.41v-20.75c0-9.5859-7.7734-17.355-17.355-17.355h-556.15c-9.5859 0-17.355 7.7695-17.355 17.355v20.75c0 9.5859 7.7695 17.355 17.355 17.355h556.15c9.582 0.003906 17.355-7.7695 17.355-17.355z"/>
  <path d="m413.21 296.57h28.023c5.2148 0 9.4414-4.2266 9.4414-9.4414v-89.016l148.29-127.94c2.3672-2.043 2.6328-5.6211 0.58984-7.9883l-23.246-26.941c-2.043-2.3672-5.6211-2.6328-7.9883-0.58594l-164.56 141.98v110.48c0 5.2148 4.2305 9.4414 9.4453 9.4414z"/>
  <path d="m669.09 635.65c5.2188-50.66 17.082-165.89 21.652-210.27 0.98828-9.5938-6.543-17.883-16.188-17.883h-494.68c-9.6445 0-17.168 8.3438-16.184 17.934l73.66 715.31c1.5195 14.754 13.949 25.973 28.781 25.973h117.89c10.898 0 19.734-8.8359 19.734-19.734l0.003906-311.7c0-117.16 144.17-157.84 238.61-171.93 14.211-2.1172 25.246-13.414 26.715-27.703z"/>
  <path d="m754.7 705.96c-217.65 0-311.02 65.711-311.02 122.98v15.484c0 12.398 10.051 22.445 22.445 22.445h579.63c12.395 0 22.445-10.051 22.445-22.445v-15.484c0-57.273-95.855-122.98-313.51-122.98z"/>
  <path d="m1045.8 1053.3h-579.63c-12.398 0-22.445 10.051-22.445 22.445v15.484c0 57.273 39.418 74.773 148.15 74.773h328.23c97.645 0 148.15-17.5 148.15-74.773v-15.484c0-12.398-10.051-22.445-22.445-22.445z"/>
  <path d="m1006 897.89h-2.9805v0.046875h-5.8945c-44.633 0-88.598 11.895-127.15 34.398l-86.527 50.488c-8.832 5.1523-18.719 7.7305-28.602 7.7305-10.027 0-20.047-2.6523-28.969-7.9453l-83.062-49.312c-38.949-23.137-83.484-35.359-128.79-35.359v-0.046875h-8.2148c-34.336 0-62.172 27.836-62.172 62.172s27.836 62.172 62.172 62.172h500.18c34.336 0 62.172-27.836 62.172-62.172 0.003906-34.336-27.832-62.172-62.168-62.172z"/>
 </g>
</svg>
